<svg id="Capa_1" enable-background="new 0 0 512 512" height="512" viewBox="0 0 512 512" width="512" xmlns="http://www.w3.org/2000/svg"><g><g fill="#020288"><path d="m256 30.449c5.522 0 10-4.477 10-10v-10.449c0-5.523-4.478-10-10-10-5.523 0-10 4.477-10 10v10.449c0 5.523 4.477 10 10 10z"/><path d="m90.58 98.632c3.896-3.914 3.882-10.245-.032-14.142l-9.668-9.624c-3.914-3.896-10.245-3.883-14.142.032-3.896 3.914-3.882 10.245.032 14.142l9.668 9.624c1.951 1.942 4.503 2.913 7.055 2.913 2.567 0 5.133-.982 7.087-2.945z"/><path d="m488.234 253.296h-10.497c-5.522 0-10 4.478-10 10s4.478 10 10 10h10.497c5.522 0 10-4.478 10-10s-4.477-10-10-10z"/><path d="m34.263 253.296h-10.497c-5.522 0-10 4.478-10 10s4.478 10 10 10h10.497c5.522 0 10-4.478 10-10s-4.478-10-10-10z"/><path d="m431.12 74.866-9.668 9.624c-3.914 3.897-3.929 10.228-.032 14.142 1.954 1.963 4.52 2.945 7.087 2.945 2.552 0 5.104-.971 7.055-2.913l9.668-9.624c3.914-3.896 3.929-10.228.032-14.142-3.896-3.913-10.227-3.928-14.142-.032z"/><path d="m380.771 99.876c-33.384-33.151-77.643-51.36-124.759-51.36-.426 0-.856.001-1.283.004-45.576.32-89.087 18.685-122.518 51.71-33.445 33.04-52.227 76.233-52.884 121.624-.568 39.238 11.563 76.532 35.081 107.849 21.204 28.235 50.877 49.748 84.164 61.165l-.066 17.619h-7.758c-5.522 0-10 4.478-10 10s4.478 10 10 10h7.683l-.082 21.757h-7.601c-5.522 0-10 4.478-10 10s4.478 10 10 10h7.526l-.119 31.72c-.01 2.658 1.039 5.211 2.916 7.095 1.876 1.884 4.426 2.942 7.084 2.942h95.689c2.658 0 5.208-1.059 7.084-2.942 1.877-1.884 2.926-4.436 2.916-7.095l-.119-31.72h7.526c5.522 0 10-4.478 10-10s-4.478-10-10-10h-7.601l-.082-21.757h7.683c5.522 0 10-4.478 10-10s-4.478-10-10-10h-7.758l-.066-17.619c32.887-11.283 62.303-32.456 83.438-60.204 23.438-30.77 35.826-67.5 35.826-106.218 0-47.083-18.439-91.323-51.92-124.57zm-86.964 392.124h-75.613l.081-21.757h75.45zm-75.457-41.757.081-21.757h75.137l.082 21.757zm82.223-76.265c-4.267 1.257-7.189 5.182-7.173 9.629l.094 24.879h-74.988l.094-24.879c.017-4.447-2.906-8.372-7.173-9.629-67.013-19.75-113.11-82.186-112.102-151.836 1.196-82.689 72.427-153.04 155.544-153.623.381-.003.758-.004 1.139-.004 41.797 0 81.063 16.151 110.67 45.552 29.673 29.465 46.014 68.664 46.014 110.378-.001 68.588-46.105 130.078-112.119 149.533z"/></g><g><path d="m358.653 198.872c-2.542-10.135-6.536-19.691-11.746-28.433l4.851-4.868c3.29-3.302 3.29-8.643 0-11.945l-24.71-24.796c-3.307-3.318-8.68-3.318-11.987 0l-4.809 4.826c-8.711-5.228-18.234-9.236-28.334-11.787v-6.86c0-4.673-3.788-8.461-8.461-8.461h-34.916c-4.673 0-8.461 3.788-8.461 8.461v6.86c-10.1 2.551-19.623 6.559-28.334 11.787l-4.809-4.826c-3.307-3.318-8.68-3.318-11.986 0l-24.71 24.796c-3.29 3.302-3.29 8.643 0 11.945l4.851 4.868c-5.21 8.742-9.204 18.298-11.746 28.433h-6.806c-4.673 0-8.461 3.788-8.461 8.461v35.097c0 4.673 3.788 8.461 8.461 8.461h6.806c2.542 10.135 6.536 19.691 11.746 28.433l-4.851 4.867c-3.29 3.302-3.29 8.643 0 11.945l24.71 24.796c3.307 3.318 8.68 3.318 11.986 0l4.809-4.826c8.712 5.228 18.235 9.236 28.334 11.787v6.86c0 4.673 3.788 8.461 8.461 8.461h34.916c4.673 0 8.461-3.788 8.461-8.461v-6.86c10.1-2.551 19.623-6.558 28.334-11.787l4.809 4.826c3.307 3.318 8.68 3.318 11.986 0l24.71-24.796c3.29-3.302 3.29-8.643 0-11.945l-4.851-4.867c5.21-8.742 9.204-18.298 11.746-28.433h6.806c4.673 0 8.461-3.788 8.461-8.461v-35.097c0-4.673-3.788-8.461-8.461-8.461zm-102.653 86.171c-33.11 0-59.951-26.935-59.951-60.161s26.841-60.161 59.951-60.161 59.951 26.935 59.951 60.161-26.841 60.161-59.951 60.161z" fill="#e2c4ff"/></g></g></svg>