<svg width="800" height="600" xmlns="http://www.w3.org/2000/svg">
 <g>
  <title>Layer 1</title>
  <g stroke="null" id="svg_25">
   <g stroke="null" transform="matrix(0.0675553988948862,0,0,-0.08425241659879394,-8670.836683234595,-7603.562057148436) " fill="#000000" id="svg_4">
    <path stroke="null" d="m134819.2629,-91543.76216c-121,-4 -310,-18 -420,-29c-110,-12 -250,-26 -312,-31c-61,-5 -153,-17 -205,-25c-51,-8 -133,-20 -183,-25c-49,-6 -153,-22 -230,-35c-77,-14 -167,-30 -200,-35c-33,-6 -100,-19 -150,-29c-49,-11 -115,-24 -145,-30c-143,-28 -446,-98 -545,-127c-44,-13 -102,-28 -130,-34c-27,-6 -77,-19 -110,-29c-33,-11 -109,-34 -170,-51c-158,-47 -325,-100 -360,-115c-16,-7 -50,-19 -75,-25c-25,-7 -65,-20 -90,-30c-25,-10 -70,-27 -100,-38c-136,-50 -180,-67 -320,-125c-74,-30 -154,-65 -177,-76c-23,-12 -46,-21 -52,-21c-10,0 -119,-56 -137,-71c-12,-10 -8,-119 6,-132c8,-9 60,5 240,63c47,15 132,42 190,60c58,18 137,42 175,55c201,64 453,142 485,148c14,3 77,22 140,42c103,33 149,46 340,99c30,8 78,17 105,20c28,2 106,16 175,30c319,66 368,76 410,81c25,4 65,11 90,16c80,18 203,39 260,45c30,2 101,14 158,24c56,11 135,23 175,26c40,3 146,19 237,34c106,18 222,31 325,35c88,3 255,13 370,23c154,12 330,16 655,16c449,0 469,-1 1000,-49c173,-16 548,-82 745,-132c55,-14 120,-29 145,-34c25,-4 72,-16 105,-27c33,-11 76,-23 95,-26c19,-4 65,-19 101,-32c37,-14 80,-27 95,-30c16,-2 38,-9 49,-14c53,-24 115,-50 120,-50c15,0 268,-120 275,-130c3,-4 25,-17 50,-29c113,-53 361,-278 411,-373c6,-12 15,-25 20,-28c4,-3 34,-59 67,-125c122,-246 149,-472 88,-740c-72,-317 -300,-631 -616,-846c-35,-24 -71,-50 -78,-57c-8,-7 -33,-22 -56,-33c-22,-12 -48,-27 -56,-34c-8,-7 -66,-38 -127,-69l-113,-57l0,-217c0,-228 3,-242 44,-242c60,0 305,109 506,224c25,14 68,37 95,51c78,40 212,120 225,135c3,3 23,19 45,35c358,260 625,653 706,1040c20,91 24,139 23,275c-1,227 -36,381 -134,595c-18,39 -36,72 -39,75c-4,3 -22,29 -39,58c-39,64 -34,57 -120,157c-180,209 -437,398 -722,532c-133,63 -196,90 -235,103c-22,7 -49,19 -60,25c-11,7 -33,16 -50,19c-16,4 -66,20 -110,36c-104,38 -258,85 -267,82c-4,-1 -27,4 -50,12c-75,24 -375,92 -448,101c-25,3 -92,15 -150,25c-97,18 -279,41 -610,75c-165,18 -1031,27 -1355,15z" id="svg_5" fill="none"/>
    <path stroke="null" d="m129604.2629,-93155.76216c-110,-75 -344,-273 -456,-386c-93,-93 -300,-341 -312,-372c-3,-8 -11,-22 -17,-30c-35,-42 -131,-226 -174,-334c-209,-524 -108,-1171 248,-1586c111,-129 269,-275 384,-352c34,-23 64,-44 67,-48c20,-23 368,-213 460,-250c25,-10 71,-30 102,-44c31,-14 62,-26 68,-26c7,0 24,-7 38,-15c64,-36 458,-154 651,-196c46,-10 120,-27 165,-38c45,-10 110,-24 146,-30c36,-5 103,-17 150,-26c47,-9 103,-18 125,-19c22,-2 128,-15 235,-29c194,-26 461,-47 845,-68c250,-14 872,-5 1165,16c118,9 289,20 380,25c149,8 412,34 450,45c8,2 53,7 100,10c47,3 128,13 180,21c52,8 163,23 245,34c83,12 166,25 185,30c19,5 85,16 145,25c61,8 148,24 195,35c47,10 112,22 144,25c33,3 63,8 67,11c4,2 63,16 131,30c68,14 161,34 208,45c47,11 144,33 215,50c72,17 162,40 200,51c39,11 97,26 130,34c32,7 97,25 145,39c47,14 123,37 170,51c47,14 99,30 115,36c88,28 240,80 315,108c47,17 105,38 130,47c25,8 68,26 97,39c28,13 56,24 61,24c18,0 43,50 36,73c-11,33 -7,392 5,486c14,108 8,117 -57,86c-100,-47 -148,-68 -177,-76c-16,-4 -75,-26 -130,-49c-54,-22 -133,-52 -175,-66c-41,-14 -89,-31 -107,-39c-17,-8 -37,-15 -44,-15c-7,0 -52,-13 -99,-28c-221,-73 -444,-139 -660,-193c-25,-6 -85,-22 -135,-35c-49,-13 -103,-25 -120,-28c-16,-3 -79,-16 -140,-30c-320,-74 -376,-86 -393,-86c-10,0 -68,-11 -128,-24c-60,-13 -134,-27 -164,-30c-30,-3 -102,-15 -160,-26c-58,-11 -143,-25 -190,-30c-47,-6 -157,-21 -245,-34c-88,-14 -214,-29 -280,-36c-66,-6 -158,-15 -205,-20c-87,-10 -237,-19 -705,-45c-306,-17 -924,-19 -1185,-5c-323,18 -636,43 -755,61c-34,5 -106,13 -160,19c-171,17 -502,82 -700,137c-49,14 -106,29 -125,33c-52,12 -273,90 -285,101c-5,5 -15,9 -22,9c-12,0 -138,55 -188,82c-11,6 -42,23 -70,36c-27,14 -52,28 -55,31c-3,4 -39,27 -80,51c-41,24 -84,52 -95,61c-137,117 -178,156 -233,219c-34,41 -69,82 -76,90c-35,39 -119,209 -151,307c-60,177 -79,429 -50,648c24,183 83,358 187,555c59,114 62,119 83,163c10,21 28,48 40,60c11,12 50,58 86,102c35,44 106,127 158,185c91,101 109,121 159,173c22,23 23,27 12,86c-13,72 -26,111 -37,111c-5,0 -42,-24 -83,-52z" id="svg_6" fill="none"/>
    <path stroke="null" d="m135199.2629,-93140.76216c-83,-17 -244,-56 -260,-63c-11,-5 -54,-21 -95,-36c-41,-15 -77,-30 -80,-33c-3,-3 -23,-14 -45,-24c-82,-38 -201,-133 -252,-202c-58,-78 -133,-245 -133,-297c0,-41 38,-62 97,-54c25,3 51,10 57,15c6,4 29,14 51,21c51,16 212,103 271,146c16,12 60,38 95,57c36,19 77,41 90,50c24,15 125,59 167,71c41,13 27,-27 -43,-119c-45,-60 -132,-167 -159,-195c-59,-64 -210,-259 -275,-355c-22,-33 -48,-71 -58,-85c-10,-14 -35,-59 -56,-100c-64,-128 -62,-273 6,-338c62,-60 120,-70 202,-36c62,25 651,609 847,838c37,44 44,27 8,-22c-16,-23 -30,-46 -30,-51c0,-5 -4,-11 -8,-13c-5,-1 -42,-59 -84,-128c-172,-285 -228,-447 -194,-561c25,-88 82,-129 176,-129c100,0 212,66 397,236l82,75l6,-28c20,-90 90,-174 184,-220c71,-35 135,-36 216,-3c63,26 204,115 245,156c14,14 51,49 83,79c54,49 58,56 55,91c-2,21 -8,39 -13,41c-9,3 -50,-27 -123,-88c-45,-38 -143,-82 -194,-88c-32,-4 -58,-4 -58,-1c0,4 12,16 27,26c34,24 160,149 190,189c58,77 71,217 34,365c-11,47 -21,103 -21,126c0,61 -46,94 -105,74c-42,-14 -76,-54 -95,-112c-12,-37 -55,-90 -218,-267c-133,-145 -226,-237 -270,-267c-37,-26 -72,-53 -78,-60c-20,-24 -185,-104 -214,-104c-17,0 -39,9 -50,20c-31,31 -25,84 21,187c10,24 19,46 19,50c0,7 20,46 107,209c17,33 38,66 47,73c9,8 16,19 17,25c0,6 17,36 37,68c82,126 155,233 161,238c4,3 28,39 54,80c25,41 52,81 58,88c6,8 18,35 26,60c19,63 3,155 -35,195c-14,15 -31,27 -39,27c-20,0 -140,-123 -273,-280c-67,-80 -134,-156 -147,-170c-13,-14 -63,-68 -111,-120c-106,-117 -286,-297 -412,-413c-52,-48 -102,-94 -111,-102c-50,-48 -126,-95 -151,-95c-24,0 -28,4 -28,29c0,48 14,73 155,276c33,48 68,98 77,112c9,14 21,29 25,32c5,3 39,47 75,96c37,50 81,108 98,130c44,55 110,156 159,241c33,59 42,88 52,162c22,166 -13,213 -157,211c-44,-1 -88,-3 -99,-6zm1205,-975c10,-151 5,-222 -15,-263c-19,-39 -95,-105 -118,-105c-7,0 -27,22 -45,49c-27,40 -46,55 -110,88c-2,1 61,66 140,146c78,79 143,145 144,146c0,0 2,-27 4,-61z" id="svg_7" fill="none"/>
    <path stroke="null" d="m131437.2629,-93182.76216c-154,-61 -371,-239 -482,-396c-78,-109 -153,-267 -187,-392c-8,-29 -21,-79 -30,-110c-22,-82 -29,-159 -29,-306c0,-116 2,-130 19,-143c45,-33 109,-10 181,62c45,46 215,263 215,274c0,4 -6,13 -13,19c-17,14 -89,-30 -131,-80l-29,-34l8,69c12,118 104,359 191,502c109,180 257,319 362,340l32,7l0,-45c0,-91 -87,-396 -183,-638c-57,-144 -95,-228 -183,-406c-68,-140 -70,-142 -138,-190c-258,-183 -484,-449 -530,-625c-17,-68 -12,-101 24,-139c40,-43 83,-41 144,7c83,64 275,310 401,511c6,9 32,50 58,91c27,41 57,91 67,110c23,45 52,72 115,106c69,37 134,73 173,97c25,15 33,17 37,6c2,-7 12,-35 21,-63c40,-123 148,-210 248,-199c62,6 104,31 186,110c59,56 70,63 119,69c64,9 103,24 150,59c38,29 49,27 49,-7c0,-40 33,-130 65,-174c84,-119 224,-86 405,94c73,73 92,81 92,40c0,-36 46,-124 75,-143c20,-13 31,-14 49,-6c25,11 105,101 181,202c53,71 209,236 238,252c16,8 16,6 -3,-29c-11,-21 -25,-45 -30,-53c-24,-37 -78,-139 -94,-180c-15,-38 -20,-91 -17,-170c1,-8 15,-30 33,-49c30,-32 34,-33 84,-28c65,7 129,52 300,212c111,103 114,108 114,149c0,70 -15,72 -86,13c-92,-77 -168,-120 -195,-112c-35,12 -21,77 36,166c26,41 53,78 60,84c7,5 41,44 75,85l62,75l-5,74c-5,65 -9,78 -36,104c-28,29 -31,29 -63,17c-120,-48 -316,-218 -518,-448c-30,-34 -58,-62 -62,-62c-17,0 -7,49 18,86c40,60 175,224 184,224c14,0 31,56 25,81c-13,52 -91,67 -162,31c-67,-35 -211,-223 -257,-336c-20,-48 -34,-65 -96,-111c-83,-62 -159,-91 -213,-81c-40,7 -54,21 -66,64c-13,44 15,96 98,177c115,113 191,234 191,306c0,62 -85,87 -165,50c-60,-28 -174,-144 -232,-236c-55,-88 -73,-124 -79,-164c-5,-31 -15,-45 -50,-70c-57,-39 -94,-50 -94,-26c0,10 9,32 19,49c29,47 71,196 71,250c0,53 -12,82 -46,109c-20,15 -22,21 -12,42c9,20 7,28 -13,53c-38,48 -128,56 -230,22c-93,-32 -121,-51 -244,-175c-93,-92 -153,-183 -174,-262c-9,-34 -19,-45 -54,-63c-23,-12 -61,-32 -84,-46c-25,-14 -43,-20 -43,-13c0,6 18,44 40,84c22,40 40,79 40,88c0,8 4,17 8,19c20,8 123,265 177,443c20,66 45,145 55,175c46,133 64,301 40,365c-14,36 -55,82 -92,101c-41,21 -106,16 -185,-15zm551,-984c-45,-96 -62,-187 -47,-259c12,-61 11,-62 -74,-103c-63,-31 -116,-32 -143,-5c-23,23 -24,34 -6,115c14,67 39,125 64,149c55,54 90,82 152,122c38,24 72,49 76,55c3,6 8,8 10,6c3,-2 -12,-38 -32,-80z" id="svg_8" fill="none"/>
    <path stroke="null" d="m132785.2629,-93600.76216c-96,-94 -103,-182 -19,-227c48,-26 79,-16 143,48c58,57 73,97 61,161c-5,26 -16,42 -39,55c-54,34 -81,27 -146,-37z" id="svg_9" fill="none"/>
    <path stroke="null" d="m135266.2629,-94871.76216c-7,-21 -20,-46 -29,-54c-16,-14 -103,-34 -103,-24c0,2 7,17 15,32c35,68 2,83 -85,39c-49,-25 -65,-45 -35,-45c8,0 15,4 15,10c0,10 72,50 90,50c20,0 -43,-102 -69,-112c-19,-7 -22,-11 -12,-17c10,-7 8,-17 -9,-51c-17,-33 -20,-47 -11,-64l10,-21l6,22c4,12 20,46 35,75c28,53 46,65 102,67l28,1l-17,-35c-17,-35 -17,-35 -35,-15c-10,11 -24,20 -31,20c-7,0 -4,-7 6,-15c11,-7 21,-32 24,-54c6,-44 33,-59 33,-18c1,38 52,122 78,125c24,4 31,22 7,22c-18,0 -18,8 0,40c16,28 19,60 7,60c-5,0 -14,-17 -20,-38z" id="svg_10" fill="none"/>
    <path stroke="null" d="m131512.2629,-94871.76216c-41,-30 -93,-110 -103,-159c-13,-63 25,-89 83,-59c34,18 108,94 99,102c-3,3 -16,-5 -29,-18c-35,-37 -109,-88 -119,-82c-16,10 -9,49 20,108c34,68 77,116 103,116c17,0 17,-2 3,-29c-8,-16 -22,-36 -31,-46c-20,-20 -10,-33 11,-15c22,18 45,64 45,90c0,29 -37,26 -82,-8z" id="svg_11" fill="none"/>
    <path stroke="null" d="m132364.2629,-94870.76216c-8,-10 -30,-40 -47,-67c-78,-120 -43,-207 46,-115l41,43l0,-36c0,-19 7,-41 14,-48c13,-10 15,-4 13,43c-2,66 21,106 73,123c41,14 56,40 17,30c-18,-4 -27,-1 -31,11c-6,15 -10,13 -32,-10c-14,-15 -34,-27 -45,-27c-17,0 -19,4 -13,35c7,39 -9,47 -36,18zm14,-47c-3,-9 -13,-16 -22,-16c-13,0 -12,3 3,20c20,23 29,21 19,-4zm47,-44c-5,-9 -36,-42 -68,-72c-50,-48 -58,-52 -61,-34c-2,12 11,35 33,59c19,21 35,42 35,46c0,8 24,16 53,18c14,1 16,-3 8,-17zm-91,-17c-7,-9 -15,-13 -17,-11c-7,7 7,26 19,26c6,0 6,-6 -2,-15z" id="svg_12" fill="none"/>
    <path stroke="null" d="m133738.2629,-94863.76216c-50,-11 -66,-19 -59,-29c3,-6 17,-4 33,5c27,14 146,20 176,8c29,-11 17,-31 -26,-43c-24,-7 -51,-15 -61,-17c-15,-5 -17,-1 -15,22c4,40 -16,40 -31,-1c-7,-20 -23,-41 -35,-46c-16,-8 -23,-20 -23,-42c0,-18 -4,-44 -8,-59c-6,-22 -4,-28 9,-28c9,0 16,8 16,18c0,9 5,24 10,32c8,12 21,3 72,-47c60,-59 88,-76 88,-53c0,5 -31,36 -70,67c-96,78 -93,94 20,124c102,27 125,51 78,83c-24,17 -117,20 -174,6z" id="svg_13" fill="none"/>
    <path stroke="null" d="m132846.2629,-94944.76216c-21,-32 -5,-36 26,-6c24,25 25,27 7,27c-11,0 -26,-9 -33,-21z" id="svg_14" fill="none"/>
    <path stroke="null" d="m131960.2629,-95015.76216c-22,-22 -48,-44 -58,-49c-16,-9 -18,-5 -18,26c0,39 -21,47 -56,20c-25,-19 -34,-19 -34,0c0,19 -15,19 -45,-1c-31,-20 -33,-39 -2,-23c18,9 20,9 10,-2c-14,-14 -18,-49 -5,-49c4,0 23,14 42,30c42,36 60,38 60,6c0,-49 24,-50 81,-2c30,25 55,43 58,41c2,-2 1,-16 -3,-30c-5,-18 -13,-25 -31,-25c-16,0 -25,-6 -25,-15c0,-24 43,-18 86,13c61,44 62,44 56,17c-7,-38 22,-42 60,-10l33,28l5,-23c8,-35 25,-35 62,-1c18,17 28,31 22,31c-6,0 -17,-7 -24,-15c-19,-23 -31,-18 -20,9c6,18 5,28 -5,36c-10,8 -22,3 -52,-25c-49,-45 -67,-48 -41,-5c10,15 10,22 0,32c-9,9 -20,5 -51,-20c-22,-18 -42,-32 -44,-32c-2,0 -4,14 -5,31c-1,48 -13,50 -56,7z" id="svg_15" fill="none"/>
    <path stroke="null" d="m134539.2629,-94992.76216c-8,-27 -109,-100 -121,-88c-2,2 5,16 17,30c21,27 19,67 -3,67c-6,0 -35,-18 -64,-40c-29,-22 -55,-40 -58,-40c-3,0 0,11 6,25c8,19 8,29 0,37c-8,8 -23,0 -58,-31c-51,-45 -67,-47 -39,-5c12,18 14,29 6,37c-7,7 -31,-4 -80,-36c-70,-48 -101,-58 -101,-34c0,21 44,57 69,57c14,0 21,5 19,13c-8,21 -33,19 -63,-5c-16,-12 -34,-23 -41,-24c-8,-1 -26,-11 -41,-21c-36,-26 -61,-34 -68,-24c-2,5 13,20 35,35c40,27 53,56 24,56c-41,0 -91,-61 -78,-94c8,-22 53,-20 88,3c30,20 30,20 41,-2c16,-34 43,-32 99,7c55,38 77,46 56,21c-10,-12 -10,-18 0,-30c18,-22 30,-19 69,18c21,20 32,25 28,15c-7,-20 1,-48 14,-48c5,0 32,18 61,40c29,22 56,40 61,40c4,0 0,-14 -8,-31c-13,-24 -14,-34 -4,-45c18,-21 28,-18 91,32c56,44 70,45 48,3c-6,-10 -19,-19 -30,-19c-25,0 -36,-18 -16,-26c24,-9 59,3 92,31c35,30 41,31 40,4c-1,-31 26,-46 58,-31c37,16 53,55 37,88c-10,22 -16,25 -39,19c-15,-3 -44,-19 -64,-36c-41,-32 -50,-36 -42,-16c6,17 -12,67 -25,67c-5,0 -12,-9 -16,-19zm-579,-26c-11,-8 -22,-12 -25,-9c-6,6 19,24 34,24c6,-1 1,-7 -9,-15zm748,-12c6,-16 -28,-63 -46,-63c-14,0 -9,43 9,62c20,22 29,23 37,1z" id="svg_16" fill="none"/>
    <path stroke="null" d="m134775.2629,-95014.76216c-36,-42 -32,-53 6,-17c13,12 26,18 30,15c12,-13 -16,-55 -39,-59c-30,-4 -30,-22 0,-26c23,-4 122,61 122,80c0,5 -12,0 -27,-12c-26,-21 -28,-21 -31,-3c-7,44 -13,63 -20,62c-4,0 -22,-18 -41,-40z" id="svg_17" fill="none"/>
    <path stroke="null" d="m136274.2629,-94987.76216c0,-8 -12,-24 -27,-35c-14,-12 -24,-24 -21,-26c3,-3 17,4 31,16c26,19 27,19 27,2c0,-24 -19,-43 -42,-43c-10,0 -18,-7 -18,-15c0,-18 36,-19 66,-2c39,22 74,55 74,68c0,8 -9,4 -23,-9c-26,-25 -39,-28 -31,-9c6,18 -13,67 -26,67c-5,0 -10,-6 -10,-14z" id="svg_18" fill="none"/>
    <path stroke="null" d="m131648.2629,-94990.76216c-23,-4 -75,-53 -57,-53c6,0 9,-8 6,-18c-10,-42 54,-53 91,-16c21,21 21,80 0,88c-9,3 -16,5 -17,5c-1,-1 -12,-4 -23,-6zm30,-39c8,-21 -23,-63 -46,-64c-14,0 -9,35 8,58c18,26 30,28 38,6z" id="svg_19" fill="none"/>
    <path stroke="null" d="m132529.2629,-94993.76216c-11,-5 -31,-18 -45,-29c-21,-18 -22,-21 -7,-21c11,0 17,-5 14,-12c-7,-20 12,-48 32,-48c31,0 71,39 71,69c0,44 -24,59 -65,41zm39,-36c8,-21 -23,-63 -46,-64c-14,0 -8,43 9,62c20,22 29,23 37,2z" id="svg_20" fill="none"/>
    <path stroke="null" d="m132644.2629,-95013.76216c-19,-17 -28,-30 -20,-30c7,0 22,7 32,17c24,21 32,12 17,-20c-13,-29 -6,-57 14,-57c8,0 37,18 65,40c27,22 52,40 55,40c3,0 3,-16 0,-35c-5,-30 -3,-35 13,-35c22,1 70,38 60,47c-3,4 -12,1 -18,-5c-21,-21 -29,-13 -22,23c9,49 -12,46 -82,-10c-30,-25 -59,-45 -64,-45c-15,0 -12,16 9,41c21,26 17,59 -8,59c-9,-1 -32,-14 -51,-30z" id="svg_21" fill="none"/>
    <path stroke="null" d="m133216.2629,-94999.76216c-27,-19 -44,-57 -36,-79c12,-29 91,-10 123,29c8,9 18,16 24,16c5,0 3,-8 -6,-18c-10,-10 -17,-24 -17,-30c0,-20 23,-13 60,18c36,32 58,38 57,18c-2,-57 19,-66 64,-28c24,20 29,29 18,30c-9,0 -22,-7 -29,-15c-19,-23 -28,-18 -26,18c1,25 -3,33 -20,35c-11,2 -27,-4 -34,-13c-17,-21 -27,-19 -33,6c-5,20 -9,19 -64,-19c-96,-65 -149,-68 -58,-4c45,32 51,52 17,52c-10,0 -28,-7 -40,-16zm24,-19c-11,-8 -22,-12 -25,-9c-6,6 19,24 34,24c6,-1 1,-7 -9,-15z" id="svg_22" fill="none"/>
    <path stroke="null" d="m135779.2629,-94993.76216c-11,-4 -31,-19 -44,-33c-13,-14 -29,-23 -37,-20c-8,3 -21,0 -29,-7c-13,-10 -15,-8 -15,13c0,36 -17,43 -44,18c-29,-27 -36,-26 -36,4c0,29 -16,32 -48,9c-12,-8 -22,-10 -22,-5c0,20 -29,11 -65,-20c-38,-33 -54,-34 -36,-1c7,13 7,22 -1,30c-8,8 -25,0 -62,-31c-34,-29 -47,-36 -42,-22c28,67 10,87 -35,38c-17,-19 -19,-24 -7,-20c13,5 16,0 15,-21c-2,-21 3,-28 21,-30c13,-2 24,3 28,12c3,8 16,22 29,30c23,15 24,15 22,-11c-3,-38 14,-38 63,1c46,36 66,40 37,8c-18,-19 -23,-42 -9,-42c4,0 25,19 47,41l40,41l3,-36c2,-20 6,-36 10,-36c3,0 19,12 34,27l28,27l0,-27c0,-36 15,-42 49,-17l30,20l3,-22c4,-32 28,-33 62,-3c26,22 31,23 38,10c12,-21 24,-19 64,11c36,28 42,26 22,-6c-17,-27 -3,-36 24,-16c13,9 33,23 46,32c25,19 30,17 35,-14c7,-44 24,-48 60,-14c40,39 45,39 49,5c4,-40 49,-44 83,-7c28,30 31,52 12,79c-12,15 -19,16 -46,7c-17,-6 -51,-27 -75,-47c-24,-19 -46,-35 -50,-35c-3,0 -6,16 -6,35c0,40 -19,46 -58,19c-12,-8 -22,-12 -22,-7c0,4 -4,14 -9,22c-8,12 -18,7 -56,-23l-46,-38l7,37c5,28 4,36 -5,31c-7,-4 -17,-3 -24,2c-7,5 -21,6 -32,2zm25,-29c0,-12 -70,-64 -77,-57c-8,8 27,46 52,57c26,10 25,10 25,0zm380,-13c0,-25 -27,-58 -47,-58c-20,0 -16,37 7,60c26,26 40,25 40,-2z" id="svg_23" fill="none"/>
    <path stroke="null" d="m132927.2629,-95024.76216c-59,-54 -32,-105 29,-54c27,23 33,24 40,11c12,-21 31,-20 51,2c25,28 20,35 -10,15c-26,-18 -27,-17 -19,2c19,47 18,50 -21,52c-31,2 -44,-3 -70,-28zm36,-30c-36,-30 -49,-35 -49,-20c0,16 61,62 72,55c7,-4 -3,-18 -23,-35z" id="svg_24" fill="none"/>
   </g>
  </g>
  <g stroke="null" id="svg_47">
   <g stroke="null" id="svg_26" fill="#000000" transform="matrix(0.07345923234528125,0,0,-0.07946718059518626,-9441.612908577861,-7173.701269720197) ">
    <path fill="#ffffff" stroke="null" id="svg_27" d="m134913.18382,-91496.35229c-121,-4 -310,-18 -420,-29c-110,-12 -250,-26 -312,-31c-61,-5 -153,-17 -205,-25c-51,-8 -133,-20 -183,-25c-49,-6 -153,-22 -230,-35c-77,-14 -167,-30 -200,-35c-33,-6 -100,-19 -150,-29c-49,-11 -115,-24 -145,-30c-143,-28 -446,-98 -545,-127c-44,-13 -102,-28 -130,-34c-27,-6 -77,-19 -110,-29c-33,-11 -109,-34 -170,-51c-158,-47 -325,-100 -360,-115c-16,-7 -50,-19 -75,-25c-25,-7 -65,-20 -90,-30c-25,-10 -70,-27 -100,-38c-136,-50 -180,-67 -320,-125c-74,-30 -154,-65 -177,-76c-23,-12 -46,-21 -52,-21c-10,0 -119,-56 -137,-71c-12,-10 -8,-119 6,-132c8,-9 60,5 240,63c47,15 132,42 190,60c58,18 137,42 175,55c201,64 453,142 485,148c14,3 77,22 140,42c103,33 149,46 340,99c30,8 78,17 105,20c28,2 106,16 175,30c319,66 368,76 410,81c25,4 65,11 90,16c80,18 203,39 260,45c30,2 101,14 158,24c56,11 135,23 175,26c40,3 146,19 237,34c106,18 222,31 325,35c88,3 255,13 370,23c154,12 330,16 655,16c449,0 469,-1 1000,-49c173,-16 548,-82 745,-132c55,-14 120,-29 145,-34c25,-4 72,-16 105,-27c33,-11 76,-23 95,-26c19,-4 65,-19 101,-32c37,-14 80,-27 95,-30c16,-2 38,-9 49,-14c53,-24 115,-50 120,-50c15,0 268,-120 275,-130c3,-4 25,-17 50,-29c113,-53 361,-278 411,-373c6,-12 15,-25 20,-28c4,-3 34,-59 67,-125c122,-246 149,-472 88,-740c-72,-317 -300,-631 -616,-846c-35,-24 -71,-50 -78,-57c-8,-7 -33,-22 -56,-33c-22,-12 -48,-27 -56,-34c-8,-7 -66,-38 -127,-69l-113,-57l0,-217c0,-228 3,-242 44,-242c60,0 305,109 506,224c25,14 68,37 95,51c78,40 212,120 225,135c3,3 23,19 45,35c358,260 625,653 706,1040c20,91 24,139 23,275c-1,227 -36,381 -134,595c-18,39 -36,72 -39,75c-4,3 -22,29 -39,58c-39,64 -34,57 -120,157c-180,209 -437,398 -722,532c-133,63 -196,90 -235,103c-22,7 -49,19 -60,25c-11,7 -33,16 -50,19c-16,4 -66,20 -110,36c-104,38 -258,85 -267,82c-4,-1 -27,4 -50,12c-75,24 -375,92 -448,101c-25,3 -92,15 -150,25c-97,18 -279,41 -610,75c-165,18 -1031,27 -1355,15z"/>
    <path fill="#ffffff" stroke="null" id="svg_28" d="m129698.18382,-93108.35229c-110,-75 -344,-273 -456,-386c-93,-93 -300,-341 -312,-372c-3,-8 -11,-22 -17,-30c-35,-42 -131,-226 -174,-334c-209,-524 -108,-1171 248,-1586c111,-129 269,-275 384,-352c34,-23 64,-44 67,-48c20,-23 368,-213 460,-250c25,-10 71,-30 102,-44c31,-14 62,-26 68,-26c7,0 24,-7 38,-15c64,-36 458,-154 651,-196c46,-10 120,-27 165,-38c45,-10 110,-24 146,-30c36,-5 103,-17 150,-26c47,-9 103,-18 125,-19c22,-2 128,-15 235,-29c194,-26 461,-47 845,-68c250,-14 872,-5 1165,16c118,9 289,20 380,25c149,8 412,34 450,45c8,2 53,7 100,10c47,3 128,13 180,21c52,8 163,23 245,34c83,12 166,25 185,30c19,5 85,16 145,25c61,8 148,24 195,35c47,10 112,22 144,25c33,3 63,8 67,11c4,2 63,16 131,30c68,14 161,34 208,45c47,11 144,33 215,50c72,17 162,40 200,51c39,11 97,26 130,34c32,7 97,25 145,39c47,14 123,37 170,51c47,14 99,30 115,36c88,28 240,80 315,108c47,17 105,38 130,47c25,8 68,26 97,39c28,13 56,24 61,24c18,0 43,50 36,73c-11,33 -7,392 5,486c14,108 8,117 -57,86c-100,-47 -148,-68 -177,-76c-16,-4 -75,-26 -130,-49c-54,-22 -133,-52 -175,-66c-41,-14 -89,-31 -107,-39c-17,-8 -37,-15 -44,-15c-7,0 -52,-13 -99,-28c-221,-73 -444,-139 -660,-193c-25,-6 -85,-22 -135,-35c-49,-13 -103,-25 -120,-28c-16,-3 -79,-16 -140,-30c-320,-74 -376,-86 -393,-86c-10,0 -68,-11 -128,-24c-60,-13 -134,-27 -164,-30c-30,-3 -102,-15 -160,-26c-58,-11 -143,-25 -190,-30c-47,-6 -157,-21 -245,-34c-88,-14 -214,-29 -280,-36c-66,-6 -158,-15 -205,-20c-87,-10 -237,-19 -705,-45c-306,-17 -924,-19 -1185,-5c-323,18 -636,43 -755,61c-34,5 -106,13 -160,19c-171,17 -502,82 -700,137c-49,14 -106,29 -125,33c-52,12 -273,90 -285,101c-5,5 -15,9 -22,9c-12,0 -138,55 -188,82c-11,6 -42,23 -70,36c-27,14 -52,28 -55,31c-3,4 -39,27 -80,51c-41,24 -84,52 -95,61c-137,117 -178,156 -233,219c-34,41 -69,82 -76,90c-35,39 -119,209 -151,307c-60,177 -79,429 -50,648c24,183 83,358 187,555c59,114 62,119 83,163c10,21 28,48 40,60c11,12 50,58 86,102c35,44 106,127 158,185c91,101 109,121 159,173c22,23 23,27 12,86c-13,72 -26,111 -37,111c-5,0 -42,-24 -83,-52z"/>
    <path fill="#ffffff" stroke="null" id="svg_29" d="m135293.18382,-93093.35229c-83,-17 -244,-56 -260,-63c-11,-5 -54,-21 -95,-36c-41,-15 -77,-30 -80,-33c-3,-3 -23,-14 -45,-24c-82,-38 -201,-133 -252,-202c-58,-78 -133,-245 -133,-297c0,-41 38,-62 97,-54c25,3 51,10 57,15c6,4 29,14 51,21c51,16 212,103 271,146c16,12 60,38 95,57c36,19 77,41 90,50c24,15 125,59 167,71c41,13 27,-27 -43,-119c-45,-60 -132,-167 -159,-195c-59,-64 -210,-259 -275,-355c-22,-33 -48,-71 -58,-85c-10,-14 -35,-59 -56,-100c-64,-128 -62,-273 6,-338c62,-60 120,-70 202,-36c62,25 651,609 847,838c37,44 44,27 8,-22c-16,-23 -30,-46 -30,-51c0,-5 -4,-11 -8,-13c-5,-1 -42,-59 -84,-128c-172,-285 -228,-447 -194,-561c25,-88 82,-129 176,-129c100,0 212,66 397,236l82,75l6,-28c20,-90 90,-174 184,-220c71,-35 135,-36 216,-3c63,26 204,115 245,156c14,14 51,49 83,79c54,49 58,56 55,91c-2,21 -8,39 -13,41c-9,3 -50,-27 -123,-88c-45,-38 -143,-82 -194,-88c-32,-4 -58,-4 -58,-1c0,4 12,16 27,26c34,24 160,149 190,189c58,77 71,217 34,365c-11,47 -21,103 -21,126c0,61 -46,94 -105,74c-42,-14 -76,-54 -95,-112c-12,-37 -55,-90 -218,-267c-133,-145 -226,-237 -270,-267c-37,-26 -72,-53 -78,-60c-20,-24 -185,-104 -214,-104c-17,0 -39,9 -50,20c-31,31 -25,84 21,187c10,24 19,46 19,50c0,7 20,46 107,209c17,33 38,66 47,73c9,8 16,19 17,25c0,6 17,36 37,68c82,126 155,233 161,238c4,3 28,39 54,80c25,41 52,81 58,88c6,8 18,35 26,60c19,63 3,155 -35,195c-14,15 -31,27 -39,27c-20,0 -140,-123 -273,-280c-67,-80 -134,-156 -147,-170c-13,-14 -63,-68 -111,-120c-106,-117 -286,-297 -412,-413c-52,-48 -102,-94 -111,-102c-50,-48 -126,-95 -151,-95c-24,0 -28,4 -28,29c0,48 14,73 155,276c33,48 68,98 77,112c9,14 21,29 25,32c5,3 39,47 75,96c37,50 81,108 98,130c44,55 110,156 159,241c33,59 42,88 52,162c22,166 -13,213 -157,211c-44,-1 -88,-3 -99,-6zm1205,-975c10,-151 5,-222 -15,-263c-19,-39 -95,-105 -118,-105c-7,0 -27,22 -45,49c-27,40 -46,55 -110,88c-2,1 61,66 140,146c78,79 143,145 144,146c0,0 2,-27 4,-61z"/>
    <path fill="#ffffff" stroke="null" id="svg_30" d="m131531.18382,-93135.35229c-154,-61 -371,-239 -482,-396c-78,-109 -153,-267 -187,-392c-8,-29 -21,-79 -30,-110c-22,-82 -29,-159 -29,-306c0,-116 2,-130 19,-143c45,-33 109,-10 181,62c45,46 215,263 215,274c0,4 -6,13 -13,19c-17,14 -89,-30 -131,-80l-29,-34l8,69c12,118 104,359 191,502c109,180 257,319 362,340l32,7l0,-45c0,-91 -87,-396 -183,-638c-57,-144 -95,-228 -183,-406c-68,-140 -70,-142 -138,-190c-258,-183 -484,-449 -530,-625c-17,-68 -12,-101 24,-139c40,-43 83,-41 144,7c83,64 275,310 401,511c6,9 32,50 58,91c27,41 57,91 67,110c23,45 52,72 115,106c69,37 134,73 173,97c25,15 33,17 37,6c2,-7 12,-35 21,-63c40,-123 148,-210 248,-199c62,6 104,31 186,110c59,56 70,63 119,69c64,9 103,24 150,59c38,29 49,27 49,-7c0,-40 33,-130 65,-174c84,-119 224,-86 405,94c73,73 92,81 92,40c0,-36 46,-124 75,-143c20,-13 31,-14 49,-6c25,11 105,101 181,202c53,71 209,236 238,252c16,8 16,6 -3,-29c-11,-21 -25,-45 -30,-53c-24,-37 -78,-139 -94,-180c-15,-38 -20,-91 -17,-170c1,-8 15,-30 33,-49c30,-32 34,-33 84,-28c65,7 129,52 300,212c111,103 114,108 114,149c0,70 -15,72 -86,13c-92,-77 -168,-120 -195,-112c-35,12 -21,77 36,166c26,41 53,78 60,84c7,5 41,44 75,85l62,75l-5,74c-5,65 -9,78 -36,104c-28,29 -31,29 -63,17c-120,-48 -316,-218 -518,-448c-30,-34 -58,-62 -62,-62c-17,0 -7,49 18,86c40,60 175,224 184,224c14,0 31,56 25,81c-13,52 -91,67 -162,31c-67,-35 -211,-223 -257,-336c-20,-48 -34,-65 -96,-111c-83,-62 -159,-91 -213,-81c-40,7 -54,21 -66,64c-13,44 15,96 98,177c115,113 191,234 191,306c0,62 -85,87 -165,50c-60,-28 -174,-144 -232,-236c-55,-88 -73,-124 -79,-164c-5,-31 -15,-45 -50,-70c-57,-39 -94,-50 -94,-26c0,10 9,32 19,49c29,47 71,196 71,250c0,53 -12,82 -46,109c-20,15 -22,21 -12,42c9,20 7,28 -13,53c-38,48 -128,56 -230,22c-93,-32 -121,-51 -244,-175c-93,-92 -153,-183 -174,-262c-9,-34 -19,-45 -54,-63c-23,-12 -61,-32 -84,-46c-25,-14 -43,-20 -43,-13c0,6 18,44 40,84c22,40 40,79 40,88c0,8 4,17 8,19c20,8 123,265 177,443c20,66 45,145 55,175c46,133 64,301 40,365c-14,36 -55,82 -92,101c-41,21 -106,16 -185,-15zm551,-984c-45,-96 -62,-187 -47,-259c12,-61 11,-62 -74,-103c-63,-31 -116,-32 -143,-5c-23,23 -24,34 -6,115c14,67 39,125 64,149c55,54 90,82 152,122c38,24 72,49 76,55c3,6 8,8 10,6c3,-2 -12,-38 -32,-80z"/>
    <path fill="#ffffff" stroke="null" id="svg_31" d="m132879.18382,-93553.35229c-96,-94 -103,-182 -19,-227c48,-26 79,-16 143,48c58,57 73,97 61,161c-5,26 -16,42 -39,55c-54,34 -81,27 -146,-37z"/>
    <path fill="#ffffff" stroke="null" id="svg_32" d="m135360.18382,-94824.35229c-7,-21 -20,-46 -29,-54c-16,-14 -103,-34 -103,-24c0,2 7,17 15,32c35,68 2,83 -85,39c-49,-25 -65,-45 -35,-45c8,0 15,4 15,10c0,10 72,50 90,50c20,0 -43,-102 -69,-112c-19,-7 -22,-11 -12,-17c10,-7 8,-17 -9,-51c-17,-33 -20,-47 -11,-64l10,-21l6,22c4,12 20,46 35,75c28,53 46,65 102,67l28,1l-17,-35c-17,-35 -17,-35 -35,-15c-10,11 -24,20 -31,20c-7,0 -4,-7 6,-15c11,-7 21,-32 24,-54c6,-44 33,-59 33,-18c1,38 52,122 78,125c24,4 31,22 7,22c-18,0 -18,8 0,40c16,28 19,60 7,60c-5,0 -14,-17 -20,-38z"/>
    <path fill="#ffffff" stroke="null" id="svg_33" d="m131606.18382,-94824.35229c-41,-30 -93,-110 -103,-159c-13,-63 25,-89 83,-59c34,18 108,94 99,102c-3,3 -16,-5 -29,-18c-35,-37 -109,-88 -119,-82c-16,10 -9,49 20,108c34,68 77,116 103,116c17,0 17,-2 3,-29c-8,-16 -22,-36 -31,-46c-20,-20 -10,-33 11,-15c22,18 45,64 45,90c0,29 -37,26 -82,-8z"/>
    <path fill="#ffffff" stroke="null" id="svg_34" d="m132458.18382,-94823.35229c-8,-10 -30,-40 -47,-67c-78,-120 -43,-207 46,-115l41,43l0,-36c0,-19 7,-41 14,-48c13,-10 15,-4 13,43c-2,66 21,106 73,123c41,14 56,40 17,30c-18,-4 -27,-1 -31,11c-6,15 -10,13 -32,-10c-14,-15 -34,-27 -45,-27c-17,0 -19,4 -13,35c7,39 -9,47 -36,18zm14,-47c-3,-9 -13,-16 -22,-16c-13,0 -12,3 3,20c20,23 29,21 19,-4zm47,-44c-5,-9 -36,-42 -68,-72c-50,-48 -58,-52 -61,-34c-2,12 11,35 33,59c19,21 35,42 35,46c0,8 24,16 53,18c14,1 16,-3 8,-17zm-91,-17c-7,-9 -15,-13 -17,-11c-7,7 7,26 19,26c6,0 6,-6 -2,-15z"/>
    <path fill="#ffffff" stroke="null" id="svg_35" d="m133832.18382,-94816.35229c-50,-11 -66,-19 -59,-29c3,-6 17,-4 33,5c27,14 146,20 176,8c29,-11 17,-31 -26,-43c-24,-7 -51,-15 -61,-17c-15,-5 -17,-1 -15,22c4,40 -16,40 -31,-1c-7,-20 -23,-41 -35,-46c-16,-8 -23,-20 -23,-42c0,-18 -4,-44 -8,-59c-6,-22 -4,-28 9,-28c9,0 16,8 16,18c0,9 5,24 10,32c8,12 21,3 72,-47c60,-59 88,-76 88,-53c0,5 -31,36 -70,67c-96,78 -93,94 20,124c102,27 125,51 78,83c-24,17 -117,20 -174,6z"/>
    <path fill="#ffffff" stroke="null" id="svg_36" d="m132940.18382,-94897.35229c-21,-32 -5,-36 26,-6c24,25 25,27 7,27c-11,0 -26,-9 -33,-21z"/>
    <path fill="#ffffff" stroke="null" id="svg_37" d="m132054.18382,-94968.35229c-22,-22 -48,-44 -58,-49c-16,-9 -18,-5 -18,26c0,39 -21,47 -56,20c-25,-19 -34,-19 -34,0c0,19 -15,19 -45,-1c-31,-20 -33,-39 -2,-23c18,9 20,9 10,-2c-14,-14 -18,-49 -5,-49c4,0 23,14 42,30c42,36 60,38 60,6c0,-49 24,-50 81,-2c30,25 55,43 58,41c2,-2 1,-16 -3,-30c-5,-18 -13,-25 -31,-25c-16,0 -25,-6 -25,-15c0,-24 43,-18 86,13c61,44 62,44 56,17c-7,-38 22,-42 60,-10l33,28l5,-23c8,-35 25,-35 62,-1c18,17 28,31 22,31c-6,0 -17,-7 -24,-15c-19,-23 -31,-18 -20,9c6,18 5,28 -5,36c-10,8 -22,3 -52,-25c-49,-45 -67,-48 -41,-5c10,15 10,22 0,32c-9,9 -20,5 -51,-20c-22,-18 -42,-32 -44,-32c-2,0 -4,14 -5,31c-1,48 -13,50 -56,7z"/>
    <path fill="#ffffff" stroke="null" id="svg_38" d="m134633.18382,-94945.35229c-8,-27 -109,-100 -121,-88c-2,2 5,16 17,30c21,27 19,67 -3,67c-6,0 -35,-18 -64,-40c-29,-22 -55,-40 -58,-40c-3,0 0,11 6,25c8,19 8,29 0,37c-8,8 -23,0 -58,-31c-51,-45 -67,-47 -39,-5c12,18 14,29 6,37c-7,7 -31,-4 -80,-36c-70,-48 -101,-58 -101,-34c0,21 44,57 69,57c14,0 21,5 19,13c-8,21 -33,19 -63,-5c-16,-12 -34,-23 -41,-24c-8,-1 -26,-11 -41,-21c-36,-26 -61,-34 -68,-24c-2,5 13,20 35,35c40,27 53,56 24,56c-41,0 -91,-61 -78,-94c8,-22 53,-20 88,3c30,20 30,20 41,-2c16,-34 43,-32 99,7c55,38 77,46 56,21c-10,-12 -10,-18 0,-30c18,-22 30,-19 69,18c21,20 32,25 28,15c-7,-20 1,-48 14,-48c5,0 32,18 61,40c29,22 56,40 61,40c4,0 0,-14 -8,-31c-13,-24 -14,-34 -4,-45c18,-21 28,-18 91,32c56,44 70,45 48,3c-6,-10 -19,-19 -30,-19c-25,0 -36,-18 -16,-26c24,-9 59,3 92,31c35,30 41,31 40,4c-1,-31 26,-46 58,-31c37,16 53,55 37,88c-10,22 -16,25 -39,19c-15,-3 -44,-19 -64,-36c-41,-32 -50,-36 -42,-16c6,17 -12,67 -25,67c-5,0 -12,-9 -16,-19zm-579,-26c-11,-8 -22,-12 -25,-9c-6,6 19,24 34,24c6,-1 1,-7 -9,-15zm748,-12c6,-16 -28,-63 -46,-63c-14,0 -9,43 9,62c20,22 29,23 37,1z"/>
    <path fill="#ffffff" stroke="null" id="svg_39" d="m134869.18382,-94967.35229c-36,-42 -32,-53 6,-17c13,12 26,18 30,15c12,-13 -16,-55 -39,-59c-30,-4 -30,-22 0,-26c23,-4 122,61 122,80c0,5 -12,0 -27,-12c-26,-21 -28,-21 -31,-3c-7,44 -13,63 -20,62c-4,0 -22,-18 -41,-40z"/>
    <path fill="#ffffff" stroke="null" id="svg_40" d="m136368.18382,-94940.35229c0,-8 -12,-24 -27,-35c-14,-12 -24,-24 -21,-26c3,-3 17,4 31,16c26,19 27,19 27,2c0,-24 -19,-43 -42,-43c-10,0 -18,-7 -18,-15c0,-18 36,-19 66,-2c39,22 74,55 74,68c0,8 -9,4 -23,-9c-26,-25 -39,-28 -31,-9c6,18 -13,67 -26,67c-5,0 -10,-6 -10,-14z"/>
    <path fill="#ffffff" stroke="null" id="svg_41" d="m131742.18382,-94943.35229c-23,-4 -75,-53 -57,-53c6,0 9,-8 6,-18c-10,-42 54,-53 91,-16c21,21 21,80 0,88c-9,3 -16,5 -17,5c-1,-1 -12,-4 -23,-6zm30,-39c8,-21 -23,-63 -46,-64c-14,0 -9,35 8,58c18,26 30,28 38,6z"/>
    <path fill="#ffffff" stroke="null" id="svg_42" d="m132623.18382,-94946.35229c-11,-5 -31,-18 -45,-29c-21,-18 -22,-21 -7,-21c11,0 17,-5 14,-12c-7,-20 12,-48 32,-48c31,0 71,39 71,69c0,44 -24,59 -65,41zm39,-36c8,-21 -23,-63 -46,-64c-14,0 -8,43 9,62c20,22 29,23 37,2z"/>
    <path fill="#ffffff" stroke="null" id="svg_43" d="m132738.18382,-94966.35229c-19,-17 -28,-30 -20,-30c7,0 22,7 32,17c24,21 32,12 17,-20c-13,-29 -6,-57 14,-57c8,0 37,18 65,40c27,22 52,40 55,40c3,0 3,-16 0,-35c-5,-30 -3,-35 13,-35c22,1 70,38 60,47c-3,4 -12,1 -18,-5c-21,-21 -29,-13 -22,23c9,49 -12,46 -82,-10c-30,-25 -59,-45 -64,-45c-15,0 -12,16 9,41c21,26 17,59 -8,59c-9,-1 -32,-14 -51,-30z"/>
    <path fill="#ffffff" stroke="null" id="svg_44" d="m133310.18382,-94952.35229c-27,-19 -44,-57 -36,-79c12,-29 91,-10 123,29c8,9 18,16 24,16c5,0 3,-8 -6,-18c-10,-10 -17,-24 -17,-30c0,-20 23,-13 60,18c36,32 58,38 57,18c-2,-57 19,-66 64,-28c24,20 29,29 18,30c-9,0 -22,-7 -29,-15c-19,-23 -28,-18 -26,18c1,25 -3,33 -20,35c-11,2 -27,-4 -34,-13c-17,-21 -27,-19 -33,6c-5,20 -9,19 -64,-19c-96,-65 -149,-68 -58,-4c45,32 51,52 17,52c-10,0 -28,-7 -40,-16zm24,-19c-11,-8 -22,-12 -25,-9c-6,6 19,24 34,24c6,-1 1,-7 -9,-15z"/>
    <path fill="#ffffff" stroke="null" id="svg_45" d="m135873.18382,-94946.35229c-11,-4 -31,-19 -44,-33c-13,-14 -29,-23 -37,-20c-8,3 -21,0 -29,-7c-13,-10 -15,-8 -15,13c0,36 -17,43 -44,18c-29,-27 -36,-26 -36,4c0,29 -16,32 -48,9c-12,-8 -22,-10 -22,-5c0,20 -29,11 -65,-20c-38,-33 -54,-34 -36,-1c7,13 7,22 -1,30c-8,8 -25,0 -62,-31c-34,-29 -47,-36 -42,-22c28,67 10,87 -35,38c-17,-19 -19,-24 -7,-20c13,5 16,0 15,-21c-2,-21 3,-28 21,-30c13,-2 24,3 28,12c3,8 16,22 29,30c23,15 24,15 22,-11c-3,-38 14,-38 63,1c46,36 66,40 37,8c-18,-19 -23,-42 -9,-42c4,0 25,19 47,41l40,41l3,-36c2,-20 6,-36 10,-36c3,0 19,12 34,27l28,27l0,-27c0,-36 15,-42 49,-17l30,20l3,-22c4,-32 28,-33 62,-3c26,22 31,23 38,10c12,-21 24,-19 64,11c36,28 42,26 22,-6c-17,-27 -3,-36 24,-16c13,9 33,23 46,32c25,19 30,17 35,-14c7,-44 24,-48 60,-14c40,39 45,39 49,5c4,-40 49,-44 83,-7c28,30 31,52 12,79c-12,15 -19,16 -46,7c-17,-6 -51,-27 -75,-47c-24,-19 -46,-35 -50,-35c-3,0 -6,16 -6,35c0,40 -19,46 -58,19c-12,-8 -22,-12 -22,-7c0,4 -4,14 -9,22c-8,12 -18,7 -56,-23l-46,-38l7,37c5,28 4,36 -5,31c-7,-4 -17,-3 -24,2c-7,5 -21,6 -32,2zm25,-29c0,-12 -70,-64 -77,-57c-8,8 27,46 52,57c26,10 25,10 25,0zm380,-13c0,-25 -27,-58 -47,-58c-20,0 -16,37 7,60c26,26 40,25 40,-2z"/>
    <path fill="#ffffff" stroke="null" id="svg_46" d="m133021.18382,-94977.35229c-59,-54 -32,-105 29,-54c27,23 33,24 40,11c12,-21 31,-20 51,2c25,28 20,35 -10,15c-26,-18 -27,-17 -19,2c19,47 18,50 -21,52c-31,2 -44,-3 -70,-28zm36,-30c-36,-30 -49,-35 -49,-20c0,16 61,62 72,55c7,-4 -3,-18 -23,-35z"/>
   </g>
  </g>
 </g>

</svg>