<?xml version="1.0" standalone="no"?>
<!DOCTYPE svg PUBLIC "-//W3C//DTD SVG 20010904//EN"
 "http://www.w3.org/TR/2001/REC-SVG-20010904/DTD/svg10.dtd">
<svg version="1.0" xmlns="http://www.w3.org/2000/svg"
 width="160.000000pt" height="144.000000pt" viewBox="0 0 160.000000 144.000000"
 preserveAspectRatio="xMidYMid meet">

<g transform="translate(0.000000,144.000000) scale(0.100000,-0.100000)"
fill="#000000" stroke="none">
<path d="M365 1370 c-254 -10 -281 -14 -295 -40 -21 -38 -33 -273 -22 -404 11
-129 20 -159 48 -170 9 -3 120 -11 248 -17 232 -11 929 -5 1070 10 81 8 92 19
102 100 11 76 11 320 1 404 -12 98 -20 103 -170 110 -224 12 -759 16 -982 7z
m-47 -236 c35 -24 27 -36 -21 -29 -39 6 -44 4 -54 -18 -7 -15 -9 -37 -4 -54 7
-26 11 -28 55 -28 36 -1 50 4 57 17 6 11 21 18 39 18 17 0 30 5 30 10 0 6 -14
10 -31 10 -38 0 -34 24 5 28 41 5 56 -14 56 -69 0 -46 -1 -49 -27 -51 -45 -2
-67 2 -74 13 -4 8 -15 6 -32 -6 -53 -35 -117 9 -117 79 0 73 65 118 118 80z
m180 -21 c3 -26 6 -29 28 -25 53 10 86 -67 47 -110 -20 -22 -66 -24 -87 -2 -9
8 -17 34 -18 57 0 23 -2 56 -3 72 -2 17 0 34 2 38 10 17 28 -1 31 -30z m140
-56 c3 -82 2 -87 -18 -87 -18 0 -20 6 -20 83 0 46 3 87 7 91 19 19 28 -8 31
-87z m292 67 c0 -14 -21 -19 -33 -7 -9 9 13 34 24 27 5 -3 9 -12 9 -20z m164
-5 c-8 -14 -34 -11 -34 4 0 8 3 17 7 20 9 9 34 -13 27 -24z m116 22 c0 -13
-28 -33 -41 -29 -8 3 -6 9 5 21 19 18 36 22 36 8z m-454 -76 c23 -35 12 -55
-31 -55 -21 0 -34 -4 -30 -10 3 -5 19 -7 35 -3 35 6 41 -11 10 -27 -42 -23
-90 10 -90 61 0 56 75 81 106 34z m54 -10 c13 -40 25 -38 35 5 6 27 23 39 37
25 3 -3 -4 -30 -15 -60 -26 -71 -50 -74 -77 -9 -24 54 -25 74 -6 74 8 0 20
-16 26 -35z m120 -25 c0 -47 -3 -60 -15 -60 -12 0 -15 13 -15 60 0 47 3 60 15
60 12 0 15 -13 15 -60z m105 40 c0 -10 -8 -14 -22 -12 -13 2 -23 -2 -23 -7 0
-6 9 -11 20 -11 10 0 24 -9 30 -20 14 -27 -22 -65 -53 -56 -12 3 -25 6 -29 6
-5 0 -8 7 -8 16 0 12 7 14 30 9 17 -4 30 -3 30 2 0 5 -13 14 -30 20 -32 12
-40 39 -18 61 18 18 73 11 73 -8z m55 -40 c0 -47 -3 -60 -15 -60 -12 0 -15 13
-15 60 0 47 3 60 15 60 12 0 15 -13 15 -60z m122 43 c40 -36 13 -106 -40 -106
-41 0 -62 19 -62 56 0 58 60 88 102 50z m134 5 c4 -4 9 -30 12 -58 4 -45 3
-50 -16 -50 -17 0 -21 7 -24 43 -2 29 -8 42 -18 42 -10 0 -16 -13 -18 -42 -3
-35 -7 -43 -23 -43 -16 0 -19 7 -19 53 0 30 2 56 5 59 8 8 92 4 101 -4z"/>
<path d="M385 1009 c-4 -6 -4 -13 -1 -16 8 -8 36 5 36 17 0 13 -27 13 -35 -1z"/>
<path d="M512 1048 c-16 -16 -15 -33 4 -48 22 -19 54 12 38 37 -14 22 -27 26
-42 11z"/>
<path d="M690 1050 c0 -5 9 -10 20 -10 11 0 20 5 20 10 0 6 -9 10 -20 10 -11
0 -20 -4 -20 -10z"/>
<path d="M1150 1045 c-16 -20 -6 -45 19 -45 23 0 32 18 19 43 -11 21 -22 22
-38 2z"/>
<path d="M215 690 c-60 -4 -111 -8 -112 -9 -36 -20 -58 -245 -44 -436 11 -138
14 -148 46 -163 48 -22 651 -35 1024 -23 374 13 383 15 398 69 10 36 10 414 0
473 -10 60 -24 78 -67 85 -56 9 -1125 13 -1245 4z m315 -236 c0 -20 -30 -30
-40 -14 -5 8 -9 9 -14 1 -4 -6 -20 -11 -37 -11 -19 0 -29 -5 -29 -15 0 -9 9
-15 25 -15 18 0 25 -5 25 -19 0 -15 -8 -21 -32 -23 -27 -2 -34 -9 -42 -35 -6
-22 -15 -33 -27 -33 -23 0 -23 -4 -3 98 l17 82 78 -1 c61 -1 79 -4 79 -15z
m54 -13 c-6 -26 -4 -29 14 -24 15 3 29 -3 46 -22 21 -22 27 -25 32 -12 8 21
58 40 83 32 11 -3 23 -15 26 -26 6 -19 8 -18 27 7 17 21 27 25 49 20 24 -5 29
-2 29 14 0 13 7 20 20 20 11 0 20 -6 20 -14 0 -8 7 -16 15 -20 23 -8 18 -25
-10 -36 -18 -7 -25 -17 -25 -35 0 -14 5 -25 10 -25 16 0 12 -27 -5 -34 -36
-13 -48 4 -42 63 3 31 3 50 0 44 -3 -7 -11 -13 -19 -13 -8 0 -18 -18 -25 -45
-9 -34 -16 -45 -31 -45 -17 0 -19 5 -14 25 5 19 2 25 -9 25 -11 0 -15 -6 -10
-19 4 -14 -1 -21 -22 -29 -35 -12 -73 1 -80 28 -5 19 -6 19 -24 -4 -34 -44
-99 -42 -114 3 -3 11 -2 37 3 58 6 21 13 50 16 66 4 18 13 27 26 27 16 0 19
-5 14 -29z m562 12 c-3 -10 -10 -40 -16 -68 -5 -27 -12 -60 -15 -72 -3 -14
-13 -23 -24 -23 -18 0 -18 3 -5 68 23 112 23 112 45 112 15 0 19 -5 15 -17z
m-88 -45 c14 -14 16 -68 2 -68 -5 0 -10 -9 -10 -20 0 -27 -41 -43 -75 -30 -43
16 -30 100 18 120 31 12 51 12 65 -2z m-542 -20 c-3 -13 -9 -40 -12 -60 -5
-29 -11 -38 -26 -38 -16 0 -19 5 -15 23 3 12 9 39 12 60 6 28 12 37 27 37 16
0 19 -5 14 -22z"/>
<path d="M570 365 c-15 -18 -6 -45 14 -45 18 0 40 36 31 50 -9 15 -31 12 -45
-5z"/>
<path d="M718 373 c6 -2 18 -2 25 0 6 3 1 5 -13 5 -14 0 -19 -2 -12 -5z"/>
<path d="M700 330 c0 -5 9 -10 20 -10 11 0 20 5 20 10 0 6 -9 10 -20 10 -11 0
-20 -4 -20 -10z"/>
<path d="M1005 380 c-3 -5 1 -10 10 -10 9 0 13 5 10 10 -3 6 -8 10 -10 10 -2
0 -7 -4 -10 -10z"/>
<path d="M990 330 c0 -5 9 -10 20 -10 11 0 20 5 20 10 0 6 -9 10 -20 10 -11 0
-20 -4 -20 -10z"/>
</g>
</svg>
